<svg width="16" height="24" viewBox="0 0 16 24" fill="none" xmlns="http://www.w3.org/2000/svg">
<path d="M8 9.78306C7.01509 8.93647 5.58683 8.80897 4.28732 8.94005C2.77322 9.09277 1.24459 9.61235 0.293099 10.0448C0.114601 10.126 0 10.304 0 10.5V21.5C0 21.67 0.0863761 21.8284 0.229307 21.9204C0.372238 22.0125 0.55214 22.0256 0.706901 21.9552C1.58875 21.5544 3.01012 21.074 4.38768 20.935C5.79565 20.793 6.97747 21.0223 7.60957 21.8124C7.70445 21.931 7.84811 22 8 22C8.15189 22 8.29555 21.931 8.39043 21.8124C9.02253 21.0223 10.2043 20.793 11.6123 20.935C12.9899 21.074 14.4113 21.5544 15.2931 21.9552C15.4479 22.0256 15.6278 22.0125 15.7707 21.9204C15.9136 21.8284 16 21.67 16 21.5V10.5C16 10.304 15.8854 10.126 15.7069 10.0448C14.7554 9.61235 13.2268 9.09277 11.7127 8.94005C10.4132 8.80897 8.98491 8.93647 8 9.78306Z" fill="black"/>
<ellipse cx="7.5" cy="4" rx="4.5" ry="4" fill="black"/>
</svg>
