<svg width="18" height="18" viewBox="0 0 18 18" fill="none" xmlns="http://www.w3.org/2000/svg">
<path d="M3.5 0C3.77614 0 4 0.223858 4 0.5V1H12V0.5C12 0.223858 12.2239 0 12.5 0C12.7761 0 13 0.223858 13 0.5V1H14C15.1046 1 16 1.89543 16 3V14C16 15.1046 15.1046 16 14 16H2C0.895431 16 0 15.1046 0 14V3C0 1.89543 0.895431 1 2 1H3V0.5C3 0.223858 3.22386 0 3.5 0ZM1 4V14C1 14.5523 1.44772 15 2 15H14C14.5523 15 15 14.5523 15 14V4H1Z" fill="black"/>
<g filter="url(#filter0_b_3803_905)">
<path d="M11.5 8.625C11.5 8.41789 11.3181 8.25 11.0938 8.25C10.8694 8.25 10.6875 8.41789 10.6875 8.625V12.75C10.6875 12.8846 10.7656 13.0088 10.8922 13.0756L13.7359 14.5756C13.9307 14.6783 14.1789 14.6159 14.2902 14.4361C14.4015 14.2562 14.3339 14.0272 14.1391 13.9244L11.5 12.5324V8.625Z" fill="black"/>
<path d="M11.5 18C15.0899 18 18 15.3137 18 12C18 8.68629 15.0899 6 11.5 6C7.91015 6 5 8.68629 5 12C5 15.3137 7.91015 18 11.5 18ZM17.1875 12C17.1875 14.8995 14.6411 17.25 11.5 17.25C8.35888 17.25 5.8125 14.8995 5.8125 12C5.8125 9.1005 8.35888 6.75 11.5 6.75C14.6411 6.75 17.1875 9.1005 17.1875 12Z" fill="black"/>
</g>
<defs>
<filter id="filter0_b_3803_905" x="1" y="2" width="21" height="20" filterUnits="userSpaceOnUse" color-interpolation-filters="sRGB">
<feFlood flood-opacity="0" result="BackgroundImageFix"/>
<feGaussianBlur in="BackgroundImageFix" stdDeviation="2"/>
<feComposite in2="SourceAlpha" operator="in" result="effect1_backgroundBlur_3803_905"/>
<feBlend mode="normal" in="SourceGraphic" in2="effect1_backgroundBlur_3803_905" result="shape"/>
</filter>
</defs>
</svg>
