<svg width="18" height="16" viewBox="0 0 18 16" fill="none" xmlns="http://www.w3.org/2000/svg">
<path d="M18 10.5C18 13.5376 15.5376 16 12.5 16C9.46243 16 7 13.5376 7 10.5C7 7.46243 9.46243 5 12.5 5C15.5376 5 18 7.46243 18 10.5ZM12.5 7.40625C12.5 7.2164 12.3461 7.0625 12.1562 7.0625C11.9664 7.0625 11.8125 7.2164 11.8125 7.40625V11.1875C11.8125 11.3109 11.8786 11.4248 11.9857 11.486L14.392 12.861C14.5568 12.9551 14.7668 12.8979 14.861 12.733C14.9551 12.5682 14.8979 12.3582 14.733 12.264L12.5 10.988V7.40625Z" fill="black"/>
<path d="M3.5 0C3.77614 0 4 0.223858 4 0.5V1H12V0.5C12 0.223858 12.2239 0 12.5 0C12.7761 0 13 0.223858 13 0.5V1H14C15.1046 1 16 1.89543 16 3V14C16 15.1046 15.1046 16 14 16H2C0.895431 16 0 15.1046 0 14V3C0 1.89543 0.895431 1 2 1H3V0.5C3 0.223858 3.22386 0 3.5 0ZM1 4V14C1 14.5523 1.44772 15 2 15H14C14.5523 15 15 14.5523 15 14V4H1Z" fill="black"/>
</svg>
