<svg width="21" height="20" viewBox="0 0 21 20" fill="none" xmlns="http://www.w3.org/2000/svg">
<path d="M3.5 0C3.77614 0 4 0.223858 4 0.5V1H12V0.5C12 0.223858 12.2239 0 12.5 0C12.7761 0 13 0.223858 13 0.5V1H14C15.1046 1 16 1.89543 16 3V14C16 15.1046 15.1046 16 14 16H2C0.895431 16 0 15.1046 0 14V3C0 1.89543 0.895431 1 2 1H3V0.5C3 0.223858 3.22386 0 3.5 0ZM1 4V14C1 14.5523 1.44772 15 2 15H14C14.5523 15 15 14.5523 15 14V4H1Z" fill="black"/>
<rect x="11" y="11" width="7" height="6" stroke="#E5E5E5" stroke-width="6"/>
<path d="M14.5 10.625C14.5 10.4179 14.3181 10.25 14.0938 10.25C13.8694 10.25 13.6875 10.4179 13.6875 10.625V14.75C13.6875 14.8846 13.7656 15.0088 13.8922 15.0756L16.7359 16.5756C16.9307 16.6783 17.1789 16.6159 17.2902 16.4361C17.4015 16.2562 17.3339 16.0272 17.1391 15.9244L14.5 14.5324V10.625Z" fill="black"/>
<path d="M14.5 20C18.0899 20 21 17.3137 21 14C21 10.6863 18.0899 8 14.5 8C10.9101 8 8 10.6863 8 14C8 17.3137 10.9101 20 14.5 20ZM20.1875 14C20.1875 16.8995 17.6411 19.25 14.5 19.25C11.3589 19.25 8.8125 16.8995 8.8125 14C8.8125 11.1005 11.3589 8.75 14.5 8.75C17.6411 8.75 20.1875 11.1005 20.1875 14Z" fill="black"/>
</svg>
